<svg width="64" height="64" viewBox="0 0 64 64" fill="none" xmlns="http://www.w3.org/2000/svg">
<path d="M53.6 45.2002C54.3555 45.6002 55.0222 45.5113 55.6 44.9335C56.1778 44.3557 56.2667 43.6891 55.8667 42.9335L52 35.7335L49.2 42.9335L53.6 45.2002ZM40.2667 42.6668H43.4667L49.8667 26.8002C50 26.4446 49.9667 26.1446 49.7667 25.9002C49.5667 25.6557 49.3333 25.4668 49.0667 25.3335L43.7333 23.2002C43.3333 23.0668 42.9444 23.1113 42.5667 23.3335C42.1889 23.5557 41.9555 23.8668 41.8667 24.2668L40.2667 42.6668ZM20.5333 42.6668H23.7333L22.1333 24.2668C22.0444 23.7779 21.8111 23.4446 21.4333 23.2668C21.0555 23.0891 20.6667 23.0668 20.2667 23.2002L14.9333 25.3335C14.5778 25.4668 14.3222 25.6557 14.1667 25.9002C14.0111 26.1446 14 26.4446 14.1333 26.8002L20.5333 42.6668ZM10.4 45.2002L14.8 42.9335L12 35.7335L8.13332 42.9335C7.73332 43.6891 7.82221 44.3557 8.39999 44.9335C8.97777 45.5113 9.64443 45.6002 10.4 45.2002ZM29.0667 42.6668H34.9333L36.9333 20.1335C37.0222 19.7335 36.9222 19.3891 36.6333 19.1002C36.3444 18.8113 36 18.6668 35.6 18.6668H28.4C28.0444 18.6668 27.7222 18.8113 27.4333 19.1002C27.1444 19.3891 27.0222 19.7335 27.0667 20.1335L29.0667 42.6668ZM9.19999 50.6668C7.33332 50.6668 5.77777 49.9668 4.53332 48.5668C3.28888 47.1668 2.66666 45.5113 2.66666 43.6002C2.66666 43.0668 2.74443 42.5446 2.89999 42.0335C3.05555 41.5224 3.24443 41.0224 3.46666 40.5335L9.33332 29.3335C8.7111 27.5557 8.73332 25.8002 9.39999 24.0668C10.0667 22.3335 11.2444 21.1113 12.9333 20.4002L18.2667 18.2668C18.8889 18.0446 19.5111 17.8891 20.1333 17.8002C20.7555 17.7113 21.3778 17.7335 22 17.8668C22.6222 16.5779 23.4889 15.5002 24.6 14.6335C25.7111 13.7668 26.9778 13.3335 28.4 13.3335H35.6C37.0222 13.3335 38.2889 13.7668 39.4 14.6335C40.5111 15.5002 41.3778 16.5779 42 17.8668C42.6222 17.7779 43.2444 17.7668 43.8667 17.8335C44.4889 17.9002 45.1111 18.0446 45.7333 18.2668L51.0667 20.4002C52.8444 21.1113 54.0889 22.3335 54.8 24.0668C55.5111 25.8002 55.4667 27.5113 54.6667 29.2002L60.5333 40.4002C60.8 40.8891 61 41.4002 61.1333 41.9335C61.2667 42.4668 61.3333 43.0224 61.3333 43.6002C61.3333 45.6002 60.6555 47.2779 59.3 48.6335C57.9444 49.9891 56.2667 50.6668 54.2667 50.6668C53.7778 50.6668 53.2889 50.6113 52.8 50.5002C52.3111 50.3891 51.8222 50.2224 51.3333 50.0002L47.2 48.0002H16.6667L12.9333 50.0002C12.3555 50.3113 11.7444 50.5002 11.1 50.5668C10.4555 50.6335 9.82221 50.6668 9.19999 50.6668Z" fill="#D58C3F"/>
</svg>
