<svg width="64" height="64" viewBox="0 0 64 64" fill="none" xmlns="http://www.w3.org/2000/svg">
<path d="M10.6667 56V50.6667H53.3333V56H10.6667ZM21.3333 45.3333C18.4 45.3333 15.8889 44.2889 13.8 42.2C11.7111 40.1111 10.6667 37.6 10.6667 34.6667V8H53.3333C54.8 8 56.0555 8.52222 57.1 9.56667C58.1444 10.6111 58.6667 11.8667 58.6667 13.3333V21.3333C58.6667 22.8 58.1444 24.0556 57.1 25.1C56.0555 26.1444 54.8 26.6667 53.3333 26.6667H48V34.6667C48 37.6 46.9555 40.1111 44.8667 42.2C42.7778 44.2889 40.2667 45.3333 37.3333 45.3333H21.3333ZM21.3333 40H37.3333C38.8 40 40.0555 39.4778 41.1 38.4333C42.1444 37.3889 42.6667 36.1333 42.6667 34.6667V13.3333H16V34.6667C16 36.1333 16.5222 37.3889 17.5667 38.4333C18.6111 39.4778 19.8667 40 21.3333 40ZM48 21.3333H53.3333V13.3333H48V21.3333ZM21.3333 40H16H42.6667H21.3333Z" fill="#D58C3F"/>
</svg>
