<svg width="64" height="64" viewBox="0 0 64 64" fill="none" xmlns="http://www.w3.org/2000/svg">
<path d="M16 58.6668C14.5333 58.6668 13.2778 58.1446 12.2333 57.1002C11.1889 56.0557 10.6667 54.8002 10.6667 53.3335V10.6668C10.6667 9.20016 11.1889 7.94461 12.2333 6.90016C13.2778 5.85572 14.5333 5.3335 16 5.3335H53.3333V10.6668H48V16.0002C48 16.7557 47.7444 17.3891 47.2333 17.9002C46.7222 18.4113 46.0889 18.6668 45.3333 18.6668H24C23.2444 18.6668 22.6111 18.4113 22.1 17.9002C21.5889 17.3891 21.3333 16.7557 21.3333 16.0002V10.6668H16V53.3335H26.8C25.1111 52.1335 23.7778 50.6113 22.8 48.7668C21.8222 46.9224 21.3333 44.889 21.3333 42.6668V29.3335H48V42.6668C48 44.889 47.5111 46.9224 46.5333 48.7668C45.5556 50.6113 44.2222 52.1335 42.5333 53.3335H53.3333V58.6668H16ZM34.6667 50.6668C36.8889 50.6668 38.7778 49.889 40.3333 48.3335C41.8889 46.7779 42.6667 44.889 42.6667 42.6668V34.6668H26.6667V42.6668C26.6667 44.889 27.4444 46.7779 29 48.3335C30.5556 49.889 32.4444 50.6668 34.6667 50.6668ZM34.6667 26.6668C35.4222 26.6668 36.0556 26.4113 36.5667 25.9002C37.0778 25.3891 37.3333 24.7557 37.3333 24.0002C37.3333 23.2446 37.0778 22.6113 36.5667 22.1002C36.0556 21.5891 35.4222 21.3335 34.6667 21.3335C33.9111 21.3335 33.2778 21.5891 32.7667 22.1002C32.2556 22.6113 32 23.2446 32 24.0002C32 24.7557 32.2556 25.3891 32.7667 25.9002C33.2778 26.4113 33.9111 26.6668 34.6667 26.6668Z" fill="#D58C3F"/>
</svg>
