<svg width="228" height="48" viewBox="0 0 228 48" fill="none" xmlns="http://www.w3.org/2000/svg">
<g clip-path="url(#clip0_279_419)">
<path d="M46.682 19.5133C46.1884 19.3745 45.6212 19.3498 44.974 19.3999V18.7266H46.7182C46.7922 18.7538 46.9016 18.7991 47.0375 18.8639C47.3262 19.0016 47.6938 19.2079 48.0541 19.4716C48.8145 20.0284 49.2932 20.653 49.349 21.2514V28.4895C49.1028 30.6321 48.6065 31.7704 47.8495 32.51C47.0695 33.2721 45.8432 33.7842 43.7023 34.2547H43.0772L43.4556 33.4204H43.8263H44.0275L44.2167 33.3523C45.4799 32.8972 46.5315 32.379 47.2912 31.5176C48.0674 30.6375 48.4161 29.5426 48.6015 28.2071L48.6123 28.1292V28.0506V21.6095V21.3353L48.4875 21.0911C48.1436 20.4183 47.6399 19.7828 46.682 19.5133Z" fill="#1E1E1E" stroke="#252525" stroke-width="3"/>
<path d="M9.83466 37.4749C4.48635 32.0867 3.04127 24.5378 5.56726 15.8076H43.4571C44.6467 20.235 44.9988 23.6149 44.488 26.8399C43.9669 30.1297 42.5307 33.368 39.9587 37.4749H9.83466Z" fill="#1E1E1E" stroke="#252525" stroke-width="3"/>
<path d="M1.23615 40.8816C1.23425 40.6061 1.27356 40.3169 1.37693 39.9619H46.9631C47.0172 40.0165 47.0518 40.0632 47.0752 40.1019C47.1191 40.1745 47.1568 40.2735 47.1668 40.4484C47.1901 40.8599 47.0585 41.4917 46.7001 42.6186C46.1555 43.7138 45.6317 44.3743 44.9464 44.8741C44.2409 45.3889 43.281 45.7952 41.7472 46.2309H6.12761C4.9224 45.7934 4.12232 45.4154 3.47347 44.914C2.82187 44.4105 2.25419 43.7279 1.62001 42.5759C1.34568 41.8134 1.23915 41.3178 1.23615 40.8816Z" fill="#1E1E1E" stroke="#252525" stroke-width="3"/>
<path d="M43.9288 41.5366H4.31354C3.75461 42.1358 3.78462 42.4854 4.31354 43.1279C5.49643 44.0958 6.58469 44.3988 8.84836 44.7572H39.3085C42.1176 44.4092 43.2402 44.0645 44.2711 43.1279C44.8989 42.2578 44.9871 41.856 43.9288 41.5366Z" fill="white"/>
<path d="M41.9648 17.5835H7.54487C4.85613 25.2332 7.78584 31.8604 13.2786 35.9005H35.8829C40.2952 33.0297 43.9324 28.6134 41.9648 17.5835Z" fill="white"/>
<path d="M21.8952 8.52545C18.3066 9.45771 16.8012 10.781 15.7302 14.2621H18.9642C19.3714 12.9173 20.2434 12.2749 21.8952 11.3435H32.7091C35.6656 10.7973 36.4388 9.75607 36.7518 6.91517C36.4115 3.91016 35.4891 2.95539 32.7091 2.38623H21.592C20.5627 2.57742 20.128 2.81418 20.076 3.89588C20.1213 4.89212 20.4756 5.20584 21.592 5.40552H32.7091C33.5293 5.74045 33.7196 6.08088 33.7198 6.91517C33.7132 7.72948 33.6029 8.13512 32.7091 8.52545H21.8952Z" fill="#252525"/>
<path d="M16.7409 6.85065C18.3236 6.85065 19.6066 5.57296 19.6066 3.99686C19.6066 2.42075 18.3236 1.14307 16.7409 1.14307C15.1582 1.14307 13.8751 2.42075 13.8751 3.99686C13.8751 5.57296 15.1582 6.85065 16.7409 6.85065Z" fill="#252525"/>
<path d="M23.6487 23.5233V23.0991L23.2252 23.1445C22.7591 23.1944 22.3733 23.2535 21.9862 23.3761C21.597 23.4993 21.2231 23.6813 20.7693 23.9614L20.7507 23.9729L20.7335 23.9864C20.3469 24.291 20.169 24.4814 19.9065 24.8098L19.9022 24.8152L19.898 24.8208C19.4643 25.4058 19.2993 25.788 19.0777 26.4505L19.0589 26.5067L19.0582 26.566C19.057 26.6516 19.0554 26.7425 19.054 26.829C19.0524 26.9208 19.0508 27.0074 19.0501 27.0769C19.0494 27.1476 19.0492 27.2128 19.0505 27.2638C19.0512 27.2888 19.0524 27.3165 19.0548 27.3425C19.0555 27.3501 19.0566 27.3598 19.0581 27.3708V28.0947V28.1628L19.0818 28.2267C19.0888 28.2456 19.0958 28.2642 19.1026 28.2827C19.3139 28.853 19.4515 29.2244 19.8943 29.8397C20.164 30.2183 20.3647 30.4114 20.7453 30.6881L20.7696 30.7057L20.7964 30.7195C21.6894 31.1752 22.2396 31.3186 23.1882 31.5153L23.6487 31.6107V31.1423V23.5233Z" stroke="#252525" stroke-width="2"/>
<path d="M26.5 23.436V23.0119L26.9235 23.0573C27.3896 23.1072 27.7755 23.1662 28.1625 23.2888C28.5517 23.412 28.9256 23.594 29.3794 23.8741L29.398 23.8856L29.4152 23.8992C29.8019 24.2038 29.9798 24.3942 30.2423 24.7226L30.2466 24.728L30.2508 24.7335C30.6845 25.3185 30.8494 25.7008 31.071 26.3632L31.0898 26.4195L31.0906 26.4787C31.0917 26.5643 31.0933 26.6553 31.0948 26.7418C31.0963 26.8335 31.0979 26.9201 31.0986 26.9897C31.0994 27.0603 31.0996 27.1255 31.0982 27.1766C31.0975 27.2015 31.0963 27.2292 31.0939 27.2552C31.0932 27.2628 31.0922 27.2725 31.0906 27.2835V28.0074V28.0755L31.067 28.1394C31.0599 28.1583 31.053 28.177 31.0461 28.1954C30.8349 28.7658 30.6973 29.1371 30.2544 29.7524C29.9847 30.131 29.784 30.3242 29.4034 30.6008L29.3791 30.6185L29.3524 30.6322C28.4593 31.088 27.9091 31.2314 26.9605 31.428L26.5 31.5235V31.0551V23.436Z" stroke="#252525" stroke-width="2"/>
<mask id="path-10-outside-1_279_419" maskUnits="userSpaceOnUse" x="51.1196" y="14.396" width="178" height="29" fill="black">
<rect fill="white" x="51.1196" y="14.396" width="178" height="29"/>
<path d="M55.1196 40.3808L64.6681 19.0474H69.5647L79.1436 40.3808H73.9411L66.1065 21.5465H68.0651L60.1999 40.3808H55.1196ZM59.8939 35.8093L61.2098 32.0608H72.2273L73.5739 35.8093H59.8939ZM81.0295 40.3808V23.9846H85.5895V28.617L84.9469 27.276C85.4365 26.1179 86.2223 25.2442 87.3034 24.655C88.3852 24.0455 89.7012 23.7408 91.2513 23.7408V28.1293C91.0478 28.109 90.8641 28.0989 90.7004 28.0989C90.5374 28.0785 90.3638 28.0684 90.1801 28.0684C88.8749 28.0684 87.8137 28.4442 86.9973 29.196C86.2016 29.9274 85.8038 31.0754 85.8038 32.6398V40.3808H81.0295ZM101.775 40.6246C100.021 40.6246 98.4601 40.2589 97.0928 39.5274C95.7462 38.796 94.6751 37.8004 93.8794 36.5408C93.1044 35.2608 92.7164 33.808 92.7164 32.1827C92.7164 30.537 93.1044 29.0842 93.8794 27.8246C94.6751 26.5446 95.7462 25.549 97.0928 24.8379C98.4601 24.1065 100.021 23.7408 101.775 23.7408C103.51 23.7408 105.061 24.1065 106.427 24.8379C107.794 25.549 108.865 26.5344 109.64 27.7941C110.416 29.0537 110.803 30.5166 110.803 32.1827C110.803 33.808 110.416 35.2608 109.64 36.5408C108.865 37.8004 107.794 38.796 106.427 39.5274C105.061 40.2589 103.51 40.6246 101.775 40.6246ZM101.775 36.7236C102.571 36.7236 103.286 36.5408 103.918 36.175C104.55 35.8093 105.05 35.2912 105.417 34.6208C105.784 33.9299 105.968 33.1173 105.968 32.1827C105.968 31.2278 105.784 30.415 105.417 29.7446C105.05 29.0741 104.55 28.556 103.918 28.1903C103.286 27.8246 102.571 27.6417 101.775 27.6417C100.98 27.6417 100.266 27.8246 99.633 28.1903C99.001 28.556 98.4907 29.0741 98.1028 29.7446C97.7355 30.415 97.5519 31.2278 97.5519 32.1827C97.5519 33.1173 97.7355 33.9299 98.1028 34.6208C98.4907 35.2912 99.001 35.8093 99.633 36.175C100.266 36.5408 100.98 36.7236 101.775 36.7236ZM135.081 23.7408C136.387 23.7408 137.54 24.0049 138.539 24.5331C139.56 25.0411 140.355 25.8335 140.926 26.9103C141.518 27.9668 141.814 29.328 141.814 30.9941V40.3808H137.039V31.7255C137.039 30.4049 136.764 29.4297 136.213 28.7998C135.662 28.1699 134.887 27.855 133.887 27.855C133.194 27.855 132.571 28.0176 132.02 28.3427C131.47 28.6474 131.041 29.1147 130.735 29.7446C130.429 30.3744 130.276 31.177 130.276 32.1522V40.3808H125.502V31.7255C125.502 30.4049 125.226 29.4297 124.675 28.7998C124.145 28.1699 123.38 27.855 122.38 27.855C121.687 27.855 121.064 28.0176 120.513 28.3427C119.962 28.6474 119.534 29.1147 119.228 29.7446C118.922 30.3744 118.769 31.177 118.769 32.1522V40.3808H113.995V23.9846H118.555V28.4646L117.698 27.1541C118.269 26.0366 119.075 25.1935 120.115 24.6246C121.177 24.0354 122.38 23.7408 123.727 23.7408C125.237 23.7408 126.553 24.1268 127.675 24.8989C128.818 25.6506 129.572 26.8087 129.939 28.3731L128.256 27.916C128.807 26.636 129.685 25.6201 130.888 24.8684C132.112 24.1166 133.51 23.7408 135.081 23.7408ZM156.192 40.3808V37.1808L155.886 36.4798V30.7503C155.886 29.7344 155.57 28.9421 154.937 28.3731C154.325 27.8042 153.377 27.5198 152.091 27.5198C151.215 27.5198 150.347 27.6621 149.49 27.9465C148.654 28.2106 147.94 28.5763 147.348 29.0436L145.634 25.7217C146.532 25.0918 147.613 24.6042 148.878 24.2589C150.143 23.9135 151.429 23.7408 152.734 23.7408C155.244 23.7408 157.192 24.3299 158.579 25.5084C159.967 26.6868 160.66 28.5255 160.66 31.0246V40.3808H156.192ZM151.173 40.6246C149.888 40.6246 148.786 40.4112 147.868 39.9846C146.95 39.5376 146.246 38.9382 145.756 38.1865C145.267 37.4347 145.022 36.5916 145.022 35.6569C145.022 34.6817 145.257 33.8284 145.726 33.0969C146.215 32.3655 146.98 31.7966 148.021 31.3903C149.062 30.9636 150.419 30.7503 152.091 30.7503H156.468V33.5236H152.612C151.49 33.5236 150.714 33.7065 150.286 34.0722C149.878 34.4379 149.674 34.895 149.674 35.4436C149.674 36.0531 149.908 36.5408 150.377 36.9065C150.867 37.2518 151.53 37.4246 152.367 37.4246C153.162 37.4246 153.877 37.2417 154.509 36.876C155.142 36.4899 155.601 35.9312 155.886 35.1998L156.621 37.3941C156.274 38.4506 155.641 39.2531 154.723 39.8017C153.805 40.3503 152.622 40.6246 151.173 40.6246ZM169.151 40.3808L162.234 23.9846H167.162L172.915 38.095H170.467L176.435 23.9846H181.025L174.078 40.3808H169.151ZM182.974 40.3808V23.9846H187.748V40.3808H182.974ZM185.361 21.6989C184.483 21.6989 183.77 21.4449 183.219 20.9369C182.668 20.429 182.392 19.7992 182.392 19.0474C182.392 18.2957 182.668 17.6659 183.219 17.1579C183.77 16.6499 184.483 16.396 185.361 16.396C186.238 16.396 186.952 16.6398 187.503 17.1274C188.054 17.5947 188.33 18.2042 188.33 18.956C188.33 19.7484 188.054 20.4087 187.503 20.9369C186.972 21.4449 186.258 21.6989 185.361 21.6989ZM192.179 40.3808V17.7674H196.953V40.3808H192.179ZM201.384 40.3808V17.7674H206.158V40.3808H201.384ZM218.76 40.6246C216.883 40.6246 215.23 40.2589 213.802 39.5274C212.394 38.796 211.303 37.8004 210.527 36.5408C209.752 35.2608 209.364 33.808 209.364 32.1827C209.364 30.537 209.742 29.0842 210.497 27.8246C211.273 26.5446 212.323 25.549 213.649 24.8379C214.976 24.1065 216.475 23.7408 218.148 23.7408C219.76 23.7408 221.208 24.0861 222.494 24.7769C223.8 25.4474 224.83 26.4227 225.585 27.7027C226.34 28.9623 226.717 30.476 226.717 32.2436C226.717 32.4265 226.707 32.6398 226.686 32.8836C226.666 33.1071 226.646 33.3204 226.625 33.5236H213.251V30.7503H224.116L222.279 31.5731C222.279 30.7198 222.106 29.9782 221.759 29.3484C221.412 28.7185 220.933 28.2309 220.321 27.8855C219.709 27.5198 218.995 27.3369 218.178 27.3369C217.363 27.3369 216.638 27.5198 216.006 27.8855C215.393 28.2309 214.914 28.7287 214.567 29.3789C214.221 30.0087 214.047 30.7604 214.047 31.6341V32.3655C214.047 33.2595 214.241 34.0518 214.628 34.7427C215.037 35.4131 215.598 35.9312 216.312 36.2969C217.046 36.6423 217.903 36.815 218.882 36.815C219.76 36.815 220.525 36.683 221.178 36.4189C221.851 36.1547 222.463 35.7585 223.014 35.2303L225.554 37.9731C224.8 38.8265 223.851 39.4868 222.708 39.9541C221.566 40.4011 220.25 40.6246 218.76 40.6246Z"/>
</mask>
<path d="M55.1196 40.3808L64.6681 19.0474H69.5647L79.1436 40.3808H73.9411L66.1065 21.5465H68.0651L60.1999 40.3808H55.1196ZM59.8939 35.8093L61.2098 32.0608H72.2273L73.5739 35.8093H59.8939ZM81.0295 40.3808V23.9846H85.5895V28.617L84.9469 27.276C85.4365 26.1179 86.2223 25.2442 87.3034 24.655C88.3852 24.0455 89.7012 23.7408 91.2513 23.7408V28.1293C91.0478 28.109 90.8641 28.0989 90.7004 28.0989C90.5374 28.0785 90.3638 28.0684 90.1801 28.0684C88.8749 28.0684 87.8137 28.4442 86.9973 29.196C86.2016 29.9274 85.8038 31.0754 85.8038 32.6398V40.3808H81.0295ZM101.775 40.6246C100.021 40.6246 98.4601 40.2589 97.0928 39.5274C95.7462 38.796 94.6751 37.8004 93.8794 36.5408C93.1044 35.2608 92.7164 33.808 92.7164 32.1827C92.7164 30.537 93.1044 29.0842 93.8794 27.8246C94.6751 26.5446 95.7462 25.549 97.0928 24.8379C98.4601 24.1065 100.021 23.7408 101.775 23.7408C103.51 23.7408 105.061 24.1065 106.427 24.8379C107.794 25.549 108.865 26.5344 109.64 27.7941C110.416 29.0537 110.803 30.5166 110.803 32.1827C110.803 33.808 110.416 35.2608 109.64 36.5408C108.865 37.8004 107.794 38.796 106.427 39.5274C105.061 40.2589 103.51 40.6246 101.775 40.6246ZM101.775 36.7236C102.571 36.7236 103.286 36.5408 103.918 36.175C104.55 35.8093 105.05 35.2912 105.417 34.6208C105.784 33.9299 105.968 33.1173 105.968 32.1827C105.968 31.2278 105.784 30.415 105.417 29.7446C105.05 29.0741 104.55 28.556 103.918 28.1903C103.286 27.8246 102.571 27.6417 101.775 27.6417C100.98 27.6417 100.266 27.8246 99.633 28.1903C99.001 28.556 98.4907 29.0741 98.1028 29.7446C97.7355 30.415 97.5519 31.2278 97.5519 32.1827C97.5519 33.1173 97.7355 33.9299 98.1028 34.6208C98.4907 35.2912 99.001 35.8093 99.633 36.175C100.266 36.5408 100.98 36.7236 101.775 36.7236ZM135.081 23.7408C136.387 23.7408 137.54 24.0049 138.539 24.5331C139.56 25.0411 140.355 25.8335 140.926 26.9103C141.518 27.9668 141.814 29.328 141.814 30.9941V40.3808H137.039V31.7255C137.039 30.4049 136.764 29.4297 136.213 28.7998C135.662 28.1699 134.887 27.855 133.887 27.855C133.194 27.855 132.571 28.0176 132.02 28.3427C131.47 28.6474 131.041 29.1147 130.735 29.7446C130.429 30.3744 130.276 31.177 130.276 32.1522V40.3808H125.502V31.7255C125.502 30.4049 125.226 29.4297 124.675 28.7998C124.145 28.1699 123.38 27.855 122.38 27.855C121.687 27.855 121.064 28.0176 120.513 28.3427C119.962 28.6474 119.534 29.1147 119.228 29.7446C118.922 30.3744 118.769 31.177 118.769 32.1522V40.3808H113.995V23.9846H118.555V28.4646L117.698 27.1541C118.269 26.0366 119.075 25.1935 120.115 24.6246C121.177 24.0354 122.38 23.7408 123.727 23.7408C125.237 23.7408 126.553 24.1268 127.675 24.8989C128.818 25.6506 129.572 26.8087 129.939 28.3731L128.256 27.916C128.807 26.636 129.685 25.6201 130.888 24.8684C132.112 24.1166 133.51 23.7408 135.081 23.7408ZM156.192 40.3808V37.1808L155.886 36.4798V30.7503C155.886 29.7344 155.57 28.9421 154.937 28.3731C154.325 27.8042 153.377 27.5198 152.091 27.5198C151.215 27.5198 150.347 27.6621 149.49 27.9465C148.654 28.2106 147.94 28.5763 147.348 29.0436L145.634 25.7217C146.532 25.0918 147.613 24.6042 148.878 24.2589C150.143 23.9135 151.429 23.7408 152.734 23.7408C155.244 23.7408 157.192 24.3299 158.579 25.5084C159.967 26.6868 160.66 28.5255 160.66 31.0246V40.3808H156.192ZM151.173 40.6246C149.888 40.6246 148.786 40.4112 147.868 39.9846C146.95 39.5376 146.246 38.9382 145.756 38.1865C145.267 37.4347 145.022 36.5916 145.022 35.6569C145.022 34.6817 145.257 33.8284 145.726 33.0969C146.215 32.3655 146.98 31.7966 148.021 31.3903C149.062 30.9636 150.419 30.7503 152.091 30.7503H156.468V33.5236H152.612C151.49 33.5236 150.714 33.7065 150.286 34.0722C149.878 34.4379 149.674 34.895 149.674 35.4436C149.674 36.0531 149.908 36.5408 150.377 36.9065C150.867 37.2518 151.53 37.4246 152.367 37.4246C153.162 37.4246 153.877 37.2417 154.509 36.876C155.142 36.4899 155.601 35.9312 155.886 35.1998L156.621 37.3941C156.274 38.4506 155.641 39.2531 154.723 39.8017C153.805 40.3503 152.622 40.6246 151.173 40.6246ZM169.151 40.3808L162.234 23.9846H167.162L172.915 38.095H170.467L176.435 23.9846H181.025L174.078 40.3808H169.151ZM182.974 40.3808V23.9846H187.748V40.3808H182.974ZM185.361 21.6989C184.483 21.6989 183.77 21.4449 183.219 20.9369C182.668 20.429 182.392 19.7992 182.392 19.0474C182.392 18.2957 182.668 17.6659 183.219 17.1579C183.77 16.6499 184.483 16.396 185.361 16.396C186.238 16.396 186.952 16.6398 187.503 17.1274C188.054 17.5947 188.33 18.2042 188.33 18.956C188.33 19.7484 188.054 20.4087 187.503 20.9369C186.972 21.4449 186.258 21.6989 185.361 21.6989ZM192.179 40.3808V17.7674H196.953V40.3808H192.179ZM201.384 40.3808V17.7674H206.158V40.3808H201.384ZM218.76 40.6246C216.883 40.6246 215.23 40.2589 213.802 39.5274C212.394 38.796 211.303 37.8004 210.527 36.5408C209.752 35.2608 209.364 33.808 209.364 32.1827C209.364 30.537 209.742 29.0842 210.497 27.8246C211.273 26.5446 212.323 25.549 213.649 24.8379C214.976 24.1065 216.475 23.7408 218.148 23.7408C219.76 23.7408 221.208 24.0861 222.494 24.7769C223.8 25.4474 224.83 26.4227 225.585 27.7027C226.34 28.9623 226.717 30.476 226.717 32.2436C226.717 32.4265 226.707 32.6398 226.686 32.8836C226.666 33.1071 226.646 33.3204 226.625 33.5236H213.251V30.7503H224.116L222.279 31.5731C222.279 30.7198 222.106 29.9782 221.759 29.3484C221.412 28.7185 220.933 28.2309 220.321 27.8855C219.709 27.5198 218.995 27.3369 218.178 27.3369C217.363 27.3369 216.638 27.5198 216.006 27.8855C215.393 28.2309 214.914 28.7287 214.567 29.3789C214.221 30.0087 214.047 30.7604 214.047 31.6341V32.3655C214.047 33.2595 214.241 34.0518 214.628 34.7427C215.037 35.4131 215.598 35.9312 216.312 36.2969C217.046 36.6423 217.903 36.815 218.882 36.815C219.76 36.815 220.525 36.683 221.178 36.4189C221.851 36.1547 222.463 35.7585 223.014 35.2303L225.554 37.9731C224.8 38.8265 223.851 39.4868 222.708 39.9541C221.566 40.4011 220.25 40.6246 218.76 40.6246Z" fill="white"/>
<path d="M55.1196 40.3808L64.6681 19.0474H69.5647L79.1436 40.3808H73.9411L66.1065 21.5465H68.0651L60.1999 40.3808H55.1196ZM59.8939 35.8093L61.2098 32.0608H72.2273L73.5739 35.8093H59.8939ZM81.0295 40.3808V23.9846H85.5895V28.617L84.9469 27.276C85.4365 26.1179 86.2223 25.2442 87.3034 24.655C88.3852 24.0455 89.7012 23.7408 91.2513 23.7408V28.1293C91.0478 28.109 90.8641 28.0989 90.7004 28.0989C90.5374 28.0785 90.3638 28.0684 90.1801 28.0684C88.8749 28.0684 87.8137 28.4442 86.9973 29.196C86.2016 29.9274 85.8038 31.0754 85.8038 32.6398V40.3808H81.0295ZM101.775 40.6246C100.021 40.6246 98.4601 40.2589 97.0928 39.5274C95.7462 38.796 94.6751 37.8004 93.8794 36.5408C93.1044 35.2608 92.7164 33.808 92.7164 32.1827C92.7164 30.537 93.1044 29.0842 93.8794 27.8246C94.6751 26.5446 95.7462 25.549 97.0928 24.8379C98.4601 24.1065 100.021 23.7408 101.775 23.7408C103.51 23.7408 105.061 24.1065 106.427 24.8379C107.794 25.549 108.865 26.5344 109.64 27.7941C110.416 29.0537 110.803 30.5166 110.803 32.1827C110.803 33.808 110.416 35.2608 109.64 36.5408C108.865 37.8004 107.794 38.796 106.427 39.5274C105.061 40.2589 103.51 40.6246 101.775 40.6246ZM101.775 36.7236C102.571 36.7236 103.286 36.5408 103.918 36.175C104.55 35.8093 105.05 35.2912 105.417 34.6208C105.784 33.9299 105.968 33.1173 105.968 32.1827C105.968 31.2278 105.784 30.415 105.417 29.7446C105.05 29.0741 104.55 28.556 103.918 28.1903C103.286 27.8246 102.571 27.6417 101.775 27.6417C100.98 27.6417 100.266 27.8246 99.633 28.1903C99.001 28.556 98.4907 29.0741 98.1028 29.7446C97.7355 30.415 97.5519 31.2278 97.5519 32.1827C97.5519 33.1173 97.7355 33.9299 98.1028 34.6208C98.4907 35.2912 99.001 35.8093 99.633 36.175C100.266 36.5408 100.98 36.7236 101.775 36.7236ZM135.081 23.7408C136.387 23.7408 137.54 24.0049 138.539 24.5331C139.56 25.0411 140.355 25.8335 140.926 26.9103C141.518 27.9668 141.814 29.328 141.814 30.9941V40.3808H137.039V31.7255C137.039 30.4049 136.764 29.4297 136.213 28.7998C135.662 28.1699 134.887 27.855 133.887 27.855C133.194 27.855 132.571 28.0176 132.02 28.3427C131.47 28.6474 131.041 29.1147 130.735 29.7446C130.429 30.3744 130.276 31.177 130.276 32.1522V40.3808H125.502V31.7255C125.502 30.4049 125.226 29.4297 124.675 28.7998C124.145 28.1699 123.38 27.855 122.38 27.855C121.687 27.855 121.064 28.0176 120.513 28.3427C119.962 28.6474 119.534 29.1147 119.228 29.7446C118.922 30.3744 118.769 31.177 118.769 32.1522V40.3808H113.995V23.9846H118.555V28.4646L117.698 27.1541C118.269 26.0366 119.075 25.1935 120.115 24.6246C121.177 24.0354 122.38 23.7408 123.727 23.7408C125.237 23.7408 126.553 24.1268 127.675 24.8989C128.818 25.6506 129.572 26.8087 129.939 28.3731L128.256 27.916C128.807 26.636 129.685 25.6201 130.888 24.8684C132.112 24.1166 133.51 23.7408 135.081 23.7408ZM156.192 40.3808V37.1808L155.886 36.4798V30.7503C155.886 29.7344 155.57 28.9421 154.937 28.3731C154.325 27.8042 153.377 27.5198 152.091 27.5198C151.215 27.5198 150.347 27.6621 149.49 27.9465C148.654 28.2106 147.94 28.5763 147.348 29.0436L145.634 25.7217C146.532 25.0918 147.613 24.6042 148.878 24.2589C150.143 23.9135 151.429 23.7408 152.734 23.7408C155.244 23.7408 157.192 24.3299 158.579 25.5084C159.967 26.6868 160.66 28.5255 160.66 31.0246V40.3808H156.192ZM151.173 40.6246C149.888 40.6246 148.786 40.4112 147.868 39.9846C146.95 39.5376 146.246 38.9382 145.756 38.1865C145.267 37.4347 145.022 36.5916 145.022 35.6569C145.022 34.6817 145.257 33.8284 145.726 33.0969C146.215 32.3655 146.98 31.7966 148.021 31.3903C149.062 30.9636 150.419 30.7503 152.091 30.7503H156.468V33.5236H152.612C151.49 33.5236 150.714 33.7065 150.286 34.0722C149.878 34.4379 149.674 34.895 149.674 35.4436C149.674 36.0531 149.908 36.5408 150.377 36.9065C150.867 37.2518 151.53 37.4246 152.367 37.4246C153.162 37.4246 153.877 37.2417 154.509 36.876C155.142 36.4899 155.601 35.9312 155.886 35.1998L156.621 37.3941C156.274 38.4506 155.641 39.2531 154.723 39.8017C153.805 40.3503 152.622 40.6246 151.173 40.6246ZM169.151 40.3808L162.234 23.9846H167.162L172.915 38.095H170.467L176.435 23.9846H181.025L174.078 40.3808H169.151ZM182.974 40.3808V23.9846H187.748V40.3808H182.974ZM185.361 21.6989C184.483 21.6989 183.77 21.4449 183.219 20.9369C182.668 20.429 182.392 19.7992 182.392 19.0474C182.392 18.2957 182.668 17.6659 183.219 17.1579C183.77 16.6499 184.483 16.396 185.361 16.396C186.238 16.396 186.952 16.6398 187.503 17.1274C188.054 17.5947 188.33 18.2042 188.33 18.956C188.33 19.7484 188.054 20.4087 187.503 20.9369C186.972 21.4449 186.258 21.6989 185.361 21.6989ZM192.179 40.3808V17.7674H196.953V40.3808H192.179ZM201.384 40.3808V17.7674H206.158V40.3808H201.384ZM218.76 40.6246C216.883 40.6246 215.23 40.2589 213.802 39.5274C212.394 38.796 211.303 37.8004 210.527 36.5408C209.752 35.2608 209.364 33.808 209.364 32.1827C209.364 30.537 209.742 29.0842 210.497 27.8246C211.273 26.5446 212.323 25.549 213.649 24.8379C214.976 24.1065 216.475 23.7408 218.148 23.7408C219.76 23.7408 221.208 24.0861 222.494 24.7769C223.8 25.4474 224.83 26.4227 225.585 27.7027C226.34 28.9623 226.717 30.476 226.717 32.2436C226.717 32.4265 226.707 32.6398 226.686 32.8836C226.666 33.1071 226.646 33.3204 226.625 33.5236H213.251V30.7503H224.116L222.279 31.5731C222.279 30.7198 222.106 29.9782 221.759 29.3484C221.412 28.7185 220.933 28.2309 220.321 27.8855C219.709 27.5198 218.995 27.3369 218.178 27.3369C217.363 27.3369 216.638 27.5198 216.006 27.8855C215.393 28.2309 214.914 28.7287 214.567 29.3789C214.221 30.0087 214.047 30.7604 214.047 31.6341V32.3655C214.047 33.2595 214.241 34.0518 214.628 34.7427C215.037 35.4131 215.598 35.9312 216.312 36.2969C217.046 36.6423 217.903 36.815 218.882 36.815C219.76 36.815 220.525 36.683 221.178 36.4189C221.851 36.1547 222.463 35.7585 223.014 35.2303L225.554 37.9731C224.8 38.8265 223.851 39.4868 222.708 39.9541C221.566 40.4011 220.25 40.6246 218.76 40.6246Z" stroke="#252525" stroke-width="4" mask="url(#path-10-outside-1_279_419)"/>
<path d="M18 4C18 4.55228 17.5523 5 17 5C16.4477 5 16 4.55228 16 4C16 3.44772 16.4477 3 17 3C17.5523 3 18 3.44772 18 4Z" fill="white"/>
</g>
<defs>
<clipPath id="clip0_279_419">
<rect width="228" height="48" fill="white"/>
</clipPath>
</defs>
</svg>
