<svg width="217" height="46" viewBox="0 0 217 46" fill="none" xmlns="http://www.w3.org/2000/svg">
<g clip-path="url(#clip0_279_432)">
<path d="M44.4298 18.7003C43.9601 18.5672 43.4203 18.5436 42.8042 18.5915V17.9463H44.4643C44.5348 17.9724 44.6388 18.0158 44.7682 18.0779C45.043 18.2099 45.3928 18.4075 45.7358 18.6603C46.4595 19.1939 46.9151 19.7925 46.9681 20.366V27.3025C46.7338 29.3557 46.2615 30.4467 45.541 31.1554C44.7986 31.8858 43.6315 32.3765 41.5939 32.8274H40.999L41.3591 32.0279H41.7119H41.9034L42.0835 31.9626C43.2858 31.5264 44.2866 31.0299 45.0097 30.2043C45.7484 29.3609 46.0803 28.3117 46.2567 27.0318L46.267 26.9572V26.8818V20.7091V20.4464L46.1482 20.2123C45.821 19.5675 45.3415 18.9585 44.4298 18.7003Z" fill="#D58C3F" stroke="#472718" stroke-width="3"/>
<path d="M9.3602 35.9134C4.26992 30.7497 2.89456 23.5154 5.29869 15.1489H41.3605C42.4927 19.3919 42.8279 22.6309 42.3417 25.7216C41.8457 28.8743 40.4788 31.9776 38.0309 35.9134H9.3602Z" fill="#D58C3F" stroke="#472718" stroke-width="3"/>
<path d="M1.17658 39.1782C1.17477 38.9142 1.21218 38.6371 1.31056 38.2969H44.6974C44.7489 38.3492 44.7819 38.394 44.8041 38.431C44.8459 38.5006 44.8818 38.5954 44.8912 38.7631C44.9134 39.1574 44.7882 39.7629 44.4471 40.8429C43.9288 41.8924 43.4303 42.5254 42.778 43.0044C42.1065 43.4977 41.193 43.8871 39.7331 44.3046H5.83205C4.68498 43.8854 3.9235 43.5231 3.30596 43.0426C2.6858 42.5601 2.1455 41.906 1.54191 40.8019C1.28082 40.0712 1.17943 39.5963 1.17658 39.1782Z" fill="#D58C3F" stroke="#472718" stroke-width="3"/>
<path d="M41.8095 39.8057H4.1055C3.57353 40.3799 3.6021 40.7149 4.1055 41.3307C5.23132 42.2582 6.26708 42.5486 8.42154 42.892H37.4121C40.0857 42.5586 41.1541 42.2282 42.1353 41.3307C42.7328 40.4968 42.8168 40.1117 41.8095 39.8057Z" fill="#EED1B2"/>
<path d="M39.9401 16.8506H7.18082C4.6218 24.1816 7.41016 30.5327 12.638 34.4044H34.1517C38.3511 31.6532 41.8128 27.4209 39.9401 16.8506Z" fill="#E6BA8C"/>
<path d="M20.8389 8.17052C17.4234 9.06395 15.9907 10.3321 14.9713 13.6682H18.0494C18.4368 12.3794 19.2668 11.7637 20.8389 10.8712H31.1311C33.9449 10.3477 34.6808 9.34988 34.9787 6.62734C34.6549 3.74754 33.777 2.83255 31.1311 2.28711H20.5503C19.5707 2.47034 19.157 2.69722 19.1075 3.73385C19.1506 4.68859 19.4878 4.98924 20.5503 5.1806H31.1311C31.9117 5.50157 32.0928 5.82782 32.093 6.62734C32.0867 7.40773 31.9818 7.79646 31.1311 8.17052H20.8389Z" fill="#472718"/>
<path d="M15.9332 6.56498C17.4395 6.56498 18.6607 5.34053 18.6607 3.8301C18.6607 2.31966 17.4395 1.09521 15.9332 1.09521C14.4269 1.09521 13.2057 2.31966 13.2057 3.8301C13.2057 5.34053 14.4269 6.56498 15.9332 6.56498Z" fill="#472718"/>
<path d="M21.9472 22.635V22.2285L21.5442 22.272C21.1006 22.3199 20.7333 22.3764 20.3649 22.4939C19.9945 22.612 19.6386 22.7864 19.2068 23.0548L19.1891 23.0659L19.1727 23.0789C18.8046 23.3708 18.6353 23.5532 18.3855 23.8679L18.3814 23.8731L18.3775 23.8785C17.9647 24.4391 17.8076 24.8054 17.5967 25.4403L17.5788 25.4941L17.5782 25.551C17.5771 25.633 17.5755 25.7201 17.5742 25.803C17.5726 25.8909 17.5712 25.9739 17.5704 26.0406C17.5698 26.1083 17.5696 26.1708 17.5709 26.2197C17.5715 26.2436 17.5726 26.2702 17.575 26.2951C17.5756 26.3024 17.5766 26.3116 17.5781 26.3222V27.0159V27.0812L17.6007 27.1424C17.6073 27.1605 17.6139 27.1784 17.6204 27.1961C17.8215 27.7427 17.9524 28.0986 18.3739 28.6882C18.6306 29.051 18.8216 29.2361 19.1839 29.5013L19.207 29.5182L19.2325 29.5313C20.0825 29.9681 20.6061 30.1055 21.5089 30.294L21.9472 30.3855V29.9366V22.635Z" fill="#D58C3F" stroke="#391F13" stroke-width="2"/>
<path d="M25.39 22.635V22.2285L25.7931 22.272C26.2367 22.3199 26.604 22.3764 26.9723 22.4939C27.3427 22.612 27.6986 22.7864 28.1305 23.0548L28.1482 23.0659L28.1646 23.0789C28.5326 23.3708 28.7019 23.5532 28.9517 23.8679L28.9559 23.8731L28.9598 23.8785C29.3726 24.4391 29.5296 24.8054 29.7405 25.4403L29.7584 25.4941L29.7591 25.551C29.7602 25.633 29.7617 25.7201 29.7631 25.803C29.7646 25.8909 29.7661 25.9739 29.7668 26.0406C29.7675 26.1083 29.7677 26.1708 29.7664 26.2197C29.7657 26.2436 29.7646 26.2702 29.7623 26.2951C29.7616 26.3024 29.7607 26.3116 29.7591 26.3222V27.0159V27.0812L29.7366 27.1424C29.7299 27.1605 29.7234 27.1784 29.7168 27.1961C29.5158 27.7427 29.3849 28.0986 28.9633 28.6882C28.7066 29.051 28.5156 29.2361 28.1533 29.5013L28.1303 29.5182L28.1048 29.5313C27.2548 29.9681 26.7311 30.1055 25.8283 30.294L25.39 30.3855V29.9366V22.635Z" fill="#D58C3F" stroke="#391F13" stroke-width="2"/>
<mask id="path-10-outside-1_279_432" maskUnits="userSpaceOnUse" x="48.4603" y="13.7129" width="170" height="28" fill="black">
<rect fill="white" x="48.4603" y="13.7129" width="170" height="28"/>
<path d="M52.4603 38.6983L61.5481 18.2538H66.2085L75.3252 38.6983H70.3738L62.9171 20.6488H64.7813L57.2955 38.6983H52.4603ZM57.0042 34.3173L58.2567 30.725H68.7426L70.0242 34.3173H57.0042ZM77.1202 38.6983V22.9853H81.4602V27.4246L80.8485 26.1396C81.3146 25.0297 82.0624 24.1924 83.0913 23.6278C84.121 23.0437 85.3735 22.7516 86.8488 22.7516V26.9573C86.6551 26.9378 86.4803 26.9281 86.3245 26.9281C86.1694 26.9086 86.0041 26.8989 85.8293 26.8989C84.587 26.8989 83.577 27.2591 82.8001 27.9796C82.0427 28.6805 81.6641 29.7806 81.6641 31.2799V38.6983H77.1202ZM96.865 38.9319C95.1953 38.9319 93.7098 38.5815 92.4085 37.8805C91.1269 37.1796 90.1074 36.2255 89.3501 35.0183C88.6125 33.7916 88.2433 32.3994 88.2433 30.8418C88.2433 29.2646 88.6125 27.8724 89.3501 26.6653C90.1074 25.4386 91.1269 24.4845 92.4085 23.803C93.7098 23.1021 95.1953 22.7516 96.865 22.7516C98.5158 22.7516 99.9919 23.1021 101.292 23.803C102.594 24.4845 103.613 25.4289 104.351 26.6361C105.089 27.8432 105.458 29.2451 105.458 30.8418C105.458 32.3994 105.089 33.7916 104.351 35.0183C103.613 36.2255 102.594 37.1796 101.292 37.8805C99.9919 38.5815 98.5158 38.9319 96.865 38.9319ZM96.865 35.1935C97.6223 35.1935 98.3025 35.0183 98.9039 34.6678C99.5062 34.3173 99.9817 33.8208 100.331 33.1783C100.681 32.5163 100.855 31.7375 100.855 30.8418C100.855 29.9267 100.681 29.1478 100.331 28.5053C99.9817 27.8627 99.5062 27.3662 98.9039 27.0157C98.3025 26.6653 97.6223 26.49 96.865 26.49C96.1077 26.49 95.4283 26.6653 94.8261 27.0157C94.2246 27.3662 93.7389 27.8627 93.3697 28.5053C93.0202 29.1478 92.8454 29.9267 92.8454 30.8418C92.8454 31.7375 93.0202 32.5163 93.3697 33.1783C93.7389 33.8208 94.2246 34.3173 94.8261 34.6678C95.4283 35.0183 96.1077 35.1935 96.865 35.1935ZM128.564 22.7516C129.807 22.7516 130.904 23.0048 131.855 23.511C132.827 23.9978 133.584 24.7571 134.127 25.7891C134.691 26.8016 134.972 28.1061 134.972 29.7027V38.6983H130.428V30.4037C130.428 29.1381 130.166 28.2035 129.641 27.5999C129.117 26.9963 128.38 26.6945 127.428 26.6945C126.768 26.6945 126.175 26.8502 125.651 27.1618C125.127 27.4538 124.719 27.9016 124.428 28.5053C124.136 29.1089 123.991 29.878 123.991 30.8126V38.6983H119.447V30.4037C119.447 29.1381 119.185 28.2035 118.66 27.5999C118.156 26.9963 117.428 26.6945 116.476 26.6945C115.816 26.6945 115.223 26.8502 114.699 27.1618C114.175 27.4538 113.767 27.9016 113.476 28.5053C113.184 29.1089 113.039 29.878 113.039 30.8126V38.6983H108.495V22.9853H112.835V27.2786L112.019 26.0227C112.563 24.9518 113.33 24.1438 114.32 23.5986C115.33 23.034 116.476 22.7516 117.757 22.7516C119.195 22.7516 120.447 23.1216 121.515 23.8615C122.603 24.5819 123.321 25.6918 123.67 27.191L122.068 26.7529C122.593 25.5262 123.428 24.5527 124.573 23.8323C125.738 23.1118 127.069 22.7516 128.564 22.7516ZM148.657 38.6983V35.6316L148.365 34.9599V29.4691C148.365 28.4956 148.065 27.7362 147.462 27.191C146.88 26.6458 145.977 26.3732 144.754 26.3732C143.919 26.3732 143.093 26.5095 142.278 26.7821C141.482 27.0352 140.802 27.3857 140.239 27.8335L138.608 24.65C139.463 24.0464 140.491 23.5791 141.695 23.2481C142.9 22.9171 144.123 22.7516 145.365 22.7516C147.754 22.7516 149.608 23.3163 150.929 24.4456C152.25 25.5749 152.909 27.337 152.909 29.7319V38.6983H148.657ZM143.88 38.9319C142.656 38.9319 141.608 38.7275 140.734 38.3186C139.86 37.8902 139.19 37.3159 138.724 36.5954C138.258 35.875 138.025 35.067 138.025 34.1713C138.025 33.2367 138.249 32.4189 138.695 31.718C139.161 31.017 139.889 30.4718 140.88 30.0824C141.87 29.6735 143.162 29.4691 144.754 29.4691H148.919V32.1269H145.249C144.181 32.1269 143.443 32.3021 143.035 32.6526C142.647 33.0031 142.452 33.4411 142.452 33.9669C142.452 34.551 142.676 35.0183 143.122 35.3688C143.588 35.6997 144.22 35.8653 145.016 35.8653C145.773 35.8653 146.453 35.69 147.055 35.3396C147.657 34.9696 148.094 34.4342 148.365 33.7332L149.064 35.8361C148.735 36.8486 148.132 37.6177 147.259 38.1434C146.385 38.6691 145.259 38.9319 143.88 38.9319ZM160.99 38.6983L154.407 22.9853H159.097L164.573 36.5078H162.242L167.922 22.9853H172.291L165.679 38.6983H160.99ZM174.146 38.6983V22.9853H178.69V38.6983H174.146ZM176.418 20.7948C175.583 20.7948 174.903 20.5514 174.379 20.0646C173.855 19.5778 173.593 18.9743 173.593 18.2538C173.593 17.5334 173.855 16.9298 174.379 16.443C174.903 15.9563 175.583 15.7129 176.418 15.7129C177.253 15.7129 177.933 15.9465 178.457 16.4138C178.981 16.8616 179.243 17.4458 179.243 18.1662C179.243 18.9256 178.981 19.5584 178.457 20.0646C177.952 20.5514 177.272 20.7948 176.418 20.7948ZM182.907 38.6983V17.0272H187.451V38.6983H182.907ZM191.668 38.6983V17.0272H196.212V38.6983H191.668ZM208.206 38.9319C206.419 38.9319 204.847 38.5815 203.487 37.8805C202.147 37.1796 201.109 36.2255 200.37 35.0183C199.633 33.7916 199.264 32.3994 199.264 30.8418C199.264 29.2646 199.623 27.8724 200.341 26.6653C201.08 25.4386 202.079 24.4845 203.341 23.803C204.604 23.1021 206.031 22.7516 207.623 22.7516C209.157 22.7516 210.536 23.0826 211.759 23.7446C213.002 24.3872 213.983 25.3218 214.701 26.5484C215.42 27.7556 215.779 29.2062 215.779 30.9002C215.779 31.0754 215.769 31.2799 215.75 31.5135C215.731 31.7277 215.711 31.9321 215.691 32.1269H202.963V29.4691H213.303L211.555 30.2577C211.555 29.4399 211.391 28.7292 211.06 28.1256C210.73 27.522 210.274 27.0547 209.691 26.7237C209.109 26.3732 208.429 26.198 207.652 26.198C206.876 26.198 206.186 26.3732 205.584 26.7237C205.002 27.0547 204.546 27.5318 204.215 28.1548C203.885 28.7584 203.72 29.4788 203.72 30.3161V31.017C203.72 31.8737 203.905 32.6331 204.273 33.2951C204.662 33.9377 205.196 34.4342 205.875 34.7846C206.575 35.1156 207.39 35.2811 208.322 35.2811C209.157 35.2811 209.886 35.1546 210.507 34.9015C211.148 34.6483 211.73 34.2686 212.254 33.7624L214.672 36.391C213.954 37.2088 213.051 37.8416 211.963 38.2894C210.876 38.7178 209.623 38.9319 208.206 38.9319Z"/>
</mask>
<path d="M52.4603 38.6983L61.5481 18.2538H66.2085L75.3252 38.6983H70.3738L62.9171 20.6488H64.7813L57.2955 38.6983H52.4603ZM57.0042 34.3173L58.2567 30.725H68.7426L70.0242 34.3173H57.0042ZM77.1202 38.6983V22.9853H81.4602V27.4246L80.8485 26.1396C81.3146 25.0297 82.0624 24.1924 83.0913 23.6278C84.121 23.0437 85.3735 22.7516 86.8488 22.7516V26.9573C86.6551 26.9378 86.4803 26.9281 86.3245 26.9281C86.1694 26.9086 86.0041 26.8989 85.8293 26.8989C84.587 26.8989 83.577 27.2591 82.8001 27.9796C82.0427 28.6805 81.6641 29.7806 81.6641 31.2799V38.6983H77.1202ZM96.865 38.9319C95.1953 38.9319 93.7098 38.5815 92.4085 37.8805C91.1269 37.1796 90.1074 36.2255 89.3501 35.0183C88.6125 33.7916 88.2433 32.3994 88.2433 30.8418C88.2433 29.2646 88.6125 27.8724 89.3501 26.6653C90.1074 25.4386 91.1269 24.4845 92.4085 23.803C93.7098 23.1021 95.1953 22.7516 96.865 22.7516C98.5158 22.7516 99.9919 23.1021 101.292 23.803C102.594 24.4845 103.613 25.4289 104.351 26.6361C105.089 27.8432 105.458 29.2451 105.458 30.8418C105.458 32.3994 105.089 33.7916 104.351 35.0183C103.613 36.2255 102.594 37.1796 101.292 37.8805C99.9919 38.5815 98.5158 38.9319 96.865 38.9319ZM96.865 35.1935C97.6223 35.1935 98.3025 35.0183 98.9039 34.6678C99.5062 34.3173 99.9817 33.8208 100.331 33.1783C100.681 32.5163 100.855 31.7375 100.855 30.8418C100.855 29.9267 100.681 29.1478 100.331 28.5053C99.9817 27.8627 99.5062 27.3662 98.9039 27.0157C98.3025 26.6653 97.6223 26.49 96.865 26.49C96.1077 26.49 95.4283 26.6653 94.8261 27.0157C94.2246 27.3662 93.7389 27.8627 93.3697 28.5053C93.0202 29.1478 92.8454 29.9267 92.8454 30.8418C92.8454 31.7375 93.0202 32.5163 93.3697 33.1783C93.7389 33.8208 94.2246 34.3173 94.8261 34.6678C95.4283 35.0183 96.1077 35.1935 96.865 35.1935ZM128.564 22.7516C129.807 22.7516 130.904 23.0048 131.855 23.511C132.827 23.9978 133.584 24.7571 134.127 25.7891C134.691 26.8016 134.972 28.1061 134.972 29.7027V38.6983H130.428V30.4037C130.428 29.1381 130.166 28.2035 129.641 27.5999C129.117 26.9963 128.38 26.6945 127.428 26.6945C126.768 26.6945 126.175 26.8502 125.651 27.1618C125.127 27.4538 124.719 27.9016 124.428 28.5053C124.136 29.1089 123.991 29.878 123.991 30.8126V38.6983H119.447V30.4037C119.447 29.1381 119.185 28.2035 118.66 27.5999C118.156 26.9963 117.428 26.6945 116.476 26.6945C115.816 26.6945 115.223 26.8502 114.699 27.1618C114.175 27.4538 113.767 27.9016 113.476 28.5053C113.184 29.1089 113.039 29.878 113.039 30.8126V38.6983H108.495V22.9853H112.835V27.2786L112.019 26.0227C112.563 24.9518 113.33 24.1438 114.32 23.5986C115.33 23.034 116.476 22.7516 117.757 22.7516C119.195 22.7516 120.447 23.1216 121.515 23.8615C122.603 24.5819 123.321 25.6918 123.67 27.191L122.068 26.7529C122.593 25.5262 123.428 24.5527 124.573 23.8323C125.738 23.1118 127.069 22.7516 128.564 22.7516ZM148.657 38.6983V35.6316L148.365 34.9599V29.4691C148.365 28.4956 148.065 27.7362 147.462 27.191C146.88 26.6458 145.977 26.3732 144.754 26.3732C143.919 26.3732 143.093 26.5095 142.278 26.7821C141.482 27.0352 140.802 27.3857 140.239 27.8335L138.608 24.65C139.463 24.0464 140.491 23.5791 141.695 23.2481C142.9 22.9171 144.123 22.7516 145.365 22.7516C147.754 22.7516 149.608 23.3163 150.929 24.4456C152.25 25.5749 152.909 27.337 152.909 29.7319V38.6983H148.657ZM143.88 38.9319C142.656 38.9319 141.608 38.7275 140.734 38.3186C139.86 37.8902 139.19 37.3159 138.724 36.5954C138.258 35.875 138.025 35.067 138.025 34.1713C138.025 33.2367 138.249 32.4189 138.695 31.718C139.161 31.017 139.889 30.4718 140.88 30.0824C141.87 29.6735 143.162 29.4691 144.754 29.4691H148.919V32.1269H145.249C144.181 32.1269 143.443 32.3021 143.035 32.6526C142.647 33.0031 142.452 33.4411 142.452 33.9669C142.452 34.551 142.676 35.0183 143.122 35.3688C143.588 35.6997 144.22 35.8653 145.016 35.8653C145.773 35.8653 146.453 35.69 147.055 35.3396C147.657 34.9696 148.094 34.4342 148.365 33.7332L149.064 35.8361C148.735 36.8486 148.132 37.6177 147.259 38.1434C146.385 38.6691 145.259 38.9319 143.88 38.9319ZM160.99 38.6983L154.407 22.9853H159.097L164.573 36.5078H162.242L167.922 22.9853H172.291L165.679 38.6983H160.99ZM174.146 38.6983V22.9853H178.69V38.6983H174.146ZM176.418 20.7948C175.583 20.7948 174.903 20.5514 174.379 20.0646C173.855 19.5778 173.593 18.9743 173.593 18.2538C173.593 17.5334 173.855 16.9298 174.379 16.443C174.903 15.9563 175.583 15.7129 176.418 15.7129C177.253 15.7129 177.933 15.9465 178.457 16.4138C178.981 16.8616 179.243 17.4458 179.243 18.1662C179.243 18.9256 178.981 19.5584 178.457 20.0646C177.952 20.5514 177.272 20.7948 176.418 20.7948ZM182.907 38.6983V17.0272H187.451V38.6983H182.907ZM191.668 38.6983V17.0272H196.212V38.6983H191.668ZM208.206 38.9319C206.419 38.9319 204.847 38.5815 203.487 37.8805C202.147 37.1796 201.109 36.2255 200.37 35.0183C199.633 33.7916 199.264 32.3994 199.264 30.8418C199.264 29.2646 199.623 27.8724 200.341 26.6653C201.08 25.4386 202.079 24.4845 203.341 23.803C204.604 23.1021 206.031 22.7516 207.623 22.7516C209.157 22.7516 210.536 23.0826 211.759 23.7446C213.002 24.3872 213.983 25.3218 214.701 26.5484C215.42 27.7556 215.779 29.2062 215.779 30.9002C215.779 31.0754 215.769 31.2799 215.75 31.5135C215.731 31.7277 215.711 31.9321 215.691 32.1269H202.963V29.4691H213.303L211.555 30.2577C211.555 29.4399 211.391 28.7292 211.06 28.1256C210.73 27.522 210.274 27.0547 209.691 26.7237C209.109 26.3732 208.429 26.198 207.652 26.198C206.876 26.198 206.186 26.3732 205.584 26.7237C205.002 27.0547 204.546 27.5318 204.215 28.1548C203.885 28.7584 203.72 29.4788 203.72 30.3161V31.017C203.72 31.8737 203.905 32.6331 204.273 33.2951C204.662 33.9377 205.196 34.4342 205.875 34.7846C206.575 35.1156 207.39 35.2811 208.322 35.2811C209.157 35.2811 209.886 35.1546 210.507 34.9015C211.148 34.6483 211.73 34.2686 212.254 33.7624L214.672 36.391C213.954 37.2088 213.051 37.8416 211.963 38.2894C210.876 38.7178 209.623 38.9319 208.206 38.9319Z" fill="#E6BA8C"/>
<path d="M52.4603 38.6983L61.5481 18.2538H66.2085L75.3252 38.6983H70.3738L62.9171 20.6488H64.7813L57.2955 38.6983H52.4603ZM57.0042 34.3173L58.2567 30.725H68.7426L70.0242 34.3173H57.0042ZM77.1202 38.6983V22.9853H81.4602V27.4246L80.8485 26.1396C81.3146 25.0297 82.0624 24.1924 83.0913 23.6278C84.121 23.0437 85.3735 22.7516 86.8488 22.7516V26.9573C86.6551 26.9378 86.4803 26.9281 86.3245 26.9281C86.1694 26.9086 86.0041 26.8989 85.8293 26.8989C84.587 26.8989 83.577 27.2591 82.8001 27.9796C82.0427 28.6805 81.6641 29.7806 81.6641 31.2799V38.6983H77.1202ZM96.865 38.9319C95.1953 38.9319 93.7098 38.5815 92.4085 37.8805C91.1269 37.1796 90.1074 36.2255 89.3501 35.0183C88.6125 33.7916 88.2433 32.3994 88.2433 30.8418C88.2433 29.2646 88.6125 27.8724 89.3501 26.6653C90.1074 25.4386 91.1269 24.4845 92.4085 23.803C93.7098 23.1021 95.1953 22.7516 96.865 22.7516C98.5158 22.7516 99.9919 23.1021 101.292 23.803C102.594 24.4845 103.613 25.4289 104.351 26.6361C105.089 27.8432 105.458 29.2451 105.458 30.8418C105.458 32.3994 105.089 33.7916 104.351 35.0183C103.613 36.2255 102.594 37.1796 101.292 37.8805C99.9919 38.5815 98.5158 38.9319 96.865 38.9319ZM96.865 35.1935C97.6223 35.1935 98.3025 35.0183 98.9039 34.6678C99.5062 34.3173 99.9817 33.8208 100.331 33.1783C100.681 32.5163 100.855 31.7375 100.855 30.8418C100.855 29.9267 100.681 29.1478 100.331 28.5053C99.9817 27.8627 99.5062 27.3662 98.9039 27.0157C98.3025 26.6653 97.6223 26.49 96.865 26.49C96.1077 26.49 95.4283 26.6653 94.8261 27.0157C94.2246 27.3662 93.7389 27.8627 93.3697 28.5053C93.0202 29.1478 92.8454 29.9267 92.8454 30.8418C92.8454 31.7375 93.0202 32.5163 93.3697 33.1783C93.7389 33.8208 94.2246 34.3173 94.8261 34.6678C95.4283 35.0183 96.1077 35.1935 96.865 35.1935ZM128.564 22.7516C129.807 22.7516 130.904 23.0048 131.855 23.511C132.827 23.9978 133.584 24.7571 134.127 25.7891C134.691 26.8016 134.972 28.1061 134.972 29.7027V38.6983H130.428V30.4037C130.428 29.1381 130.166 28.2035 129.641 27.5999C129.117 26.9963 128.38 26.6945 127.428 26.6945C126.768 26.6945 126.175 26.8502 125.651 27.1618C125.127 27.4538 124.719 27.9016 124.428 28.5053C124.136 29.1089 123.991 29.878 123.991 30.8126V38.6983H119.447V30.4037C119.447 29.1381 119.185 28.2035 118.66 27.5999C118.156 26.9963 117.428 26.6945 116.476 26.6945C115.816 26.6945 115.223 26.8502 114.699 27.1618C114.175 27.4538 113.767 27.9016 113.476 28.5053C113.184 29.1089 113.039 29.878 113.039 30.8126V38.6983H108.495V22.9853H112.835V27.2786L112.019 26.0227C112.563 24.9518 113.33 24.1438 114.32 23.5986C115.33 23.034 116.476 22.7516 117.757 22.7516C119.195 22.7516 120.447 23.1216 121.515 23.8615C122.603 24.5819 123.321 25.6918 123.67 27.191L122.068 26.7529C122.593 25.5262 123.428 24.5527 124.573 23.8323C125.738 23.1118 127.069 22.7516 128.564 22.7516ZM148.657 38.6983V35.6316L148.365 34.9599V29.4691C148.365 28.4956 148.065 27.7362 147.462 27.191C146.88 26.6458 145.977 26.3732 144.754 26.3732C143.919 26.3732 143.093 26.5095 142.278 26.7821C141.482 27.0352 140.802 27.3857 140.239 27.8335L138.608 24.65C139.463 24.0464 140.491 23.5791 141.695 23.2481C142.9 22.9171 144.123 22.7516 145.365 22.7516C147.754 22.7516 149.608 23.3163 150.929 24.4456C152.25 25.5749 152.909 27.337 152.909 29.7319V38.6983H148.657ZM143.88 38.9319C142.656 38.9319 141.608 38.7275 140.734 38.3186C139.86 37.8902 139.19 37.3159 138.724 36.5954C138.258 35.875 138.025 35.067 138.025 34.1713C138.025 33.2367 138.249 32.4189 138.695 31.718C139.161 31.017 139.889 30.4718 140.88 30.0824C141.87 29.6735 143.162 29.4691 144.754 29.4691H148.919V32.1269H145.249C144.181 32.1269 143.443 32.3021 143.035 32.6526C142.647 33.0031 142.452 33.4411 142.452 33.9669C142.452 34.551 142.676 35.0183 143.122 35.3688C143.588 35.6997 144.22 35.8653 145.016 35.8653C145.773 35.8653 146.453 35.69 147.055 35.3396C147.657 34.9696 148.094 34.4342 148.365 33.7332L149.064 35.8361C148.735 36.8486 148.132 37.6177 147.259 38.1434C146.385 38.6691 145.259 38.9319 143.88 38.9319ZM160.99 38.6983L154.407 22.9853H159.097L164.573 36.5078H162.242L167.922 22.9853H172.291L165.679 38.6983H160.99ZM174.146 38.6983V22.9853H178.69V38.6983H174.146ZM176.418 20.7948C175.583 20.7948 174.903 20.5514 174.379 20.0646C173.855 19.5778 173.593 18.9743 173.593 18.2538C173.593 17.5334 173.855 16.9298 174.379 16.443C174.903 15.9563 175.583 15.7129 176.418 15.7129C177.253 15.7129 177.933 15.9465 178.457 16.4138C178.981 16.8616 179.243 17.4458 179.243 18.1662C179.243 18.9256 178.981 19.5584 178.457 20.0646C177.952 20.5514 177.272 20.7948 176.418 20.7948ZM182.907 38.6983V17.0272H187.451V38.6983H182.907ZM191.668 38.6983V17.0272H196.212V38.6983H191.668ZM208.206 38.9319C206.419 38.9319 204.847 38.5815 203.487 37.8805C202.147 37.1796 201.109 36.2255 200.37 35.0183C199.633 33.7916 199.264 32.3994 199.264 30.8418C199.264 29.2646 199.623 27.8724 200.341 26.6653C201.08 25.4386 202.079 24.4845 203.341 23.803C204.604 23.1021 206.031 22.7516 207.623 22.7516C209.157 22.7516 210.536 23.0826 211.759 23.7446C213.002 24.3872 213.983 25.3218 214.701 26.5484C215.42 27.7556 215.779 29.2062 215.779 30.9002C215.779 31.0754 215.769 31.2799 215.75 31.5135C215.731 31.7277 215.711 31.9321 215.691 32.1269H202.963V29.4691H213.303L211.555 30.2577C211.555 29.4399 211.391 28.7292 211.06 28.1256C210.73 27.522 210.274 27.0547 209.691 26.7237C209.109 26.3732 208.429 26.198 207.652 26.198C206.876 26.198 206.186 26.3732 205.584 26.7237C205.002 27.0547 204.546 27.5318 204.215 28.1548C203.885 28.7584 203.72 29.4788 203.72 30.3161V31.017C203.72 31.8737 203.905 32.6331 204.273 33.2951C204.662 33.9377 205.196 34.4342 205.875 34.7846C206.575 35.1156 207.39 35.2811 208.322 35.2811C209.157 35.2811 209.886 35.1546 210.507 34.9015C211.148 34.6483 211.73 34.2686 212.254 33.7624L214.672 36.391C213.954 37.2088 213.051 37.8416 211.963 38.2894C210.876 38.7178 209.623 38.9319 208.206 38.9319Z" stroke="#472718" stroke-width="4" mask="url(#path-10-outside-1_279_432)"/>
<circle cx="16" cy="4" r="1" fill="#E6BA8C"/>
</g>
<defs>
<clipPath id="clip0_279_432">
<rect width="217" height="46" fill="white"/>
</clipPath>
</defs>
</svg>
